<?xml version="1.0" standalone="no"?>
<!DOCTYPE svg PUBLIC "-//W3C//DTD SVG 20010904//EN"
 "http://www.w3.org/TR/2001/REC-SVG-20010904/DTD/svg10.dtd">
<svg version="1.0" xmlns="http://www.w3.org/2000/svg"
 width="570.000000pt" height="558.000000pt" viewBox="0 0 570.000000 558.000000"
 preserveAspectRatio="xMidYMid meet">
<metadata>
Created by potrace 1.15, written by Peter Selinger 2001-2017
</metadata>
<g transform="translate(0.000000,558.000000) scale(0.100000,-0.100000)"
fill="#000000" stroke="none">
<path d="M4560 5183 c-73 -14 -134 -38 -187 -72 -32 -21 -161 -143 -288 -270
l-230 -231 519 -519 519 -519 254 246 c140 136 274 273 297 304 79 104 94 222
45 353 -20 55 -43 82 -288 329 -272 275 -343 334 -435 361 -55 17 -166 26
-206 18z"/>
<path d="M2260 3015 l-1315 -1315 519 -519 520 -520 1315 1311 c724 722 1318
1316 1320 1321 4 11 -1019 1037 -1034 1037 -6 0 -602 -592 -1325 -1315z"/>
<path d="M531 814 c-92 -411 -131 -607 -127 -629 7 -37 50 -81 88 -90 18 -5
212 38 615 136 323 78 590 144 593 146 5 4 -1022 1033 -1031 1033 -3 0 -65
-268 -138 -596z"/>
</g>
</svg>
