<?xml version="1.0" standalone="no"?>
<!DOCTYPE svg PUBLIC "-//W3C//DTD SVG 20010904//EN"
 "http://www.w3.org/TR/2001/REC-SVG-20010904/DTD/svg10.dtd">
<svg version="1.0" xmlns="http://www.w3.org/2000/svg"
 width="682.000000pt" height="902.000000pt" viewBox="0 0 682.000000 902.000000"
 preserveAspectRatio="xMidYMid meet">
<metadata>
Created by potrace 1.15, written by Peter Selinger 2001-2017
</metadata>
<g transform="translate(0.000000,902.000000) scale(0.100000,-0.100000)"
fill="#000000" stroke="none">
<path d="M3325 8735 c-5 -1 -37 -11 -70 -20 -128 -38 -234 -112 -310 -219 -48
-67 -95 -192 -95 -250 0 -18 -6 -38 -13 -44 -8 -7 -135 -12 -373 -14 l-361 -3
-37 -29 c-75 -57 -76 -62 -76 -501 0 -234 4 -405 10 -427 12 -41 75 -103 117
-115 16 -5 606 -8 1313 -8 1267 0 1285 0 1319 20 19 11 48 37 65 58 l31 39 3
409 c3 386 2 412 -16 453 -11 24 -37 56 -58 72 l-37 29 -369 5 c-404 5 -388 3
-388 66 0 75 -56 201 -125 284 -100 120 -278 201 -439 199 -45 0 -85 -2 -91
-4z"/>
<path d="M564 8151 c-99 -36 -184 -119 -221 -217 -17 -47 -18 -177 -21 -3699
-2 -2597 0 -3668 8 -3714 14 -83 41 -133 104 -196 36 -36 71 -59 119 -78 l67
-27 2800 0 2800 0 67 27 c48 19 83 42 119 78 63 63 90 113 104 196 8 46 10
1117 8 3714 -3 3509 -4 3652 -21 3699 -38 100 -121 181 -222 217 -51 18 -91
19 -665 19 -578 0 -611 -1 -606 -17 3 -10 15 -56 26 -103 18 -79 20 -118 20
-526 l0 -442 -28 -53 c-18 -36 -43 -64 -72 -84 l-45 -30 -1440 -5 c-792 -3
-1461 -2 -1488 2 -67 10 -125 52 -159 117 l-28 53 0 442 c0 408 2 447 20 526
11 47 23 93 26 103 5 16 -28 17 -608 17 -571 -1 -617 -2 -664 -19z m917 -706
c4 -371 7 -426 23 -470 35 -97 70 -156 127 -214 64 -66 116 -100 205 -133 l59
-23 1487 -3 c1637 -3 1566 -5 1695 58 78 38 174 133 212 209 66 130 64 118 70
576 l6 420 403 0 404 0 19 -24 c19 -23 19 -94 19 -3647 0 -3611 0 -3624 -20
-3644 -20 -20 -33 -20 -2770 -20 -2737 0 -2750 0 -2770 20 -20 20 -20 33 -20
3641 0 2542 3 3626 11 3640 6 11 20 24 32 29 12 5 198 8 412 7 l390 -2 6 -420z"/>
<path d="M2242 4805 c-260 -261 -476 -475 -480 -475 -4 0 -120 113 -259 252
l-252 251 -33 -29 c-50 -44 -173 -173 -172 -181 1 -3 162 -167 360 -365 l359
-358 582 582 c321 321 583 588 583 594 0 15 -190 204 -204 204 -6 0 -223 -214
-484 -475z"/>
<path d="M3274 4907 c-2 -7 -3 -80 -2 -162 l3 -150 1195 -3 c657 -1 1205 0
1218 3 22 5 22 6 20 163 l-3 157 -1213 3 c-987 2 -1214 0 -1218 -11z"/>
<path d="M2246 3215 c-262 -261 -480 -475 -484 -475 -4 0 -120 113 -257 250
-137 138 -253 250 -257 250 -9 0 -208 -195 -208 -203 0 -11 713 -717 723 -717
13 0 1143 1126 1159 1154 9 16 -4 33 -88 117 -54 55 -102 99 -105 99 -4 0
-221 -214 -483 -475z"/>
<path d="M3270 3000 l0 -160 1218 2 1217 3 3 158 3 157 -1221 0 -1220 0 0
-160z"/>
</g>
</svg>
